<?xml version="1.0" standalone="no"?>
<!DOCTYPE svg PUBLIC "-//W3C//DTD SVG 1.1//EN" "http://www.w3.org/Graphics/SVG/1.1/DTD/svg11.dtd" >
<svg xmlns="http://www.w3.org/2000/svg">
<metadata>
This is a custom SVG webfont generated by Font Squirrel.
Copyright   :  Copyright 2006 Berthold LLC All Rights Reserved This font software computer program is the property of Berthold You may not reproduce modify adapt translate alter nor create derivative works of the font software You may not reverse engineer decompile decrypt disassemble nor seek to discover the source code of the font software
Designer    : Various Berthold designers including Guenter Gerhard Lange
Foundry     : Berthold
Foundry URL : httpwwwbertholdtypescom
</metadata>
<defs>
<font id="Akzidenz-GroteskStdMedium" horiz-adv-x="1150" >
<font-face units-per-em="2048" ascent="1536" descent="-512" />
<missing-glyph horiz-adv-x="589" />
<glyph unicode=" "  horiz-adv-x="589" />
<glyph unicode="&#x09;" horiz-adv-x="589" />
<glyph unicode="&#xa0;" horiz-adv-x="589" />
<glyph unicode="!" horiz-adv-x="512" d="M164 0v283h268v-283h-268zM164 893v553h268v-553l-78 -533h-114z" />
<glyph unicode="&#x22;" horiz-adv-x="679" d="M72 1522h196l-61 -613h-72zM410 1522h198l-63 -613h-70z" />
<glyph unicode="#" horiz-adv-x="1366" d="M86 438v205h276l27 193h-258v204h285l55 406h213l-57 -406h200l56 406h207l-56 -406h242v-204h-268l-29 -193h252v-205h-277l-63 -438h-207l64 438h-203l-62 -438h-209l62 438h-250zM569 643h205l27 193h-203z" />
<glyph unicode="$" horiz-adv-x="1280" d="M72 272l207 158q37 -53 111.5 -114.5t154.5 -69.5v391q-276 31 -375 170q-59 92 -59 199q0 147 88 254q121 143 346 167v222h188v-222q266 -25 443 -223l-195 -153q-41 53 -90 86.5t-78 44t-80 22.5v-327q199 -27 320 -117q147 -109 147 -311q0 -199 -134 -315t-333 -134 v-233h-188v233q-174 33 -267 84t-206 188zM379 1046.5q0 -53.5 36 -87t130 -50.5v295q-33 -6 -66 -18t-66.5 -49t-33.5 -90.5zM733 242q39 6 78 22.5t79 61.5t40 108q0 133 -197 174v-366z" />
<glyph unicode="%" horiz-adv-x="1792" d="M51 928q0 246 95.5 356.5t244.5 110.5q147 0 238.5 -112t91.5 -349q0 -129 -27.5 -229.5t-106.5 -172t-204 -71.5q-63 0 -117.5 20.5t-104.5 69.5t-80 145.5t-30 231.5zM238 913q0 -293 149 -292q74 0 111 69.5t37 231.5q0 317 -148 317q-49 0 -82 -29.5t-46 -84 t-17 -102t-4 -110.5zM487 -12l646 1401l139 -66l-643 -1399zM1073 453q0 246 95.5 356.5t244.5 110.5q147 0 238.5 -112t91.5 -349q0 -129 -27.5 -229.5t-106.5 -172t-204 -71.5q-63 0 -117.5 20.5t-104.5 69.5t-80 145.5t-30 231.5zM1260 438q0 -293 149 -293 q74 0 110.5 70t36.5 231q0 317 -147 318q-49 0 -82 -29.5t-46 -84t-17 -102t-4 -110.5z" />
<glyph unicode="&#x26;" horiz-adv-x="1323" d="M88 377q0 66 20.5 123t44 95t76 84t80 65.5t92.5 62.5q-61 98 -61 213q0 137 86 236.5t248 99.5q145 0 239.5 -89t94.5 -218q0 -90 -63.5 -184.5t-209.5 -145.5q82 -135 189 -275q14 20 25.5 40t18.5 39.5t12 34.5t8 34.5t5 29t4 28t2 22.5h236q-6 -55 -12 -78 q-47 -197 -154 -330q35 -37 64.5 -50t78.5 -13q27 0 45 4v-205q-66 -6 -100 -6q-100 0 -154.5 20.5t-109.5 61.5q-160 -106 -346 -107q-195 0 -327 107.5t-132 300.5zM336 393q0 -80 60.5 -145.5t164.5 -65.5q106 0 199 78l-248 363q-176 -91 -176 -230zM571 1059 q0 -68 62 -158q160 47 160 154q0 49 -32 78.5t-81 29.5q-47 0 -78 -29.5t-31 -74.5z" />
<glyph unicode="'" horiz-adv-x="339" d="M72 1522h196l-61 -613h-72z" />
<glyph unicode="(" horiz-adv-x="667" d="M72 647q0 393 217 694q127 172 295 297l94 -104q-100 -102 -156 -178q-199 -281 -198 -686q0 -274 95 -511t263 -374l-90 -121q-160 117 -283 273q-237 304 -237 710z" />
<glyph unicode=")" horiz-adv-x="671" d="M-2 -231q109 113 156 178q201 283 200 688q0 274 -94 508.5t-262 374.5l90 120q170 -129 281 -272q238 -313 237 -711q0 -387 -219 -694q-109 -154 -295 -297z" />
<glyph unicode="*" horiz-adv-x="774" d="M41 1126l51 170l201 -57v211h178v-213l205 70l57 -166l-201 -70l123 -162l-139 -108l-131 170l-119 -170l-143 104l115 164z" />
<glyph unicode="+" horiz-adv-x="1482" d="M190 532v220h418v436h266v-436h418v-220h-418v-442h-266v442h-418z" />
<glyph unicode="," horiz-adv-x="425" d="M76 0v281h272v-316q0 -201 -256 -250v119q111 12 111 166h-127z" />
<glyph unicode="-" horiz-adv-x="761" d="M84 506v231h592v-231h-592z" />
<glyph unicode="." horiz-adv-x="425" d="M76 0v281h270v-281h-270z" />
<glyph unicode="/" horiz-adv-x="980" d="M27 0l686 1446h243l-686 -1446h-243z" />
<glyph unicode="0" d="M74 698q0 362 138 534.5t376 172.5q102 0 188 -38t157 -118t110.5 -221t39.5 -332q0 -164 -29.5 -292t-78.5 -205.5t-116.5 -128t-136.5 -69.5t-147 -19q-115 0 -203.5 35.5t-141 101t-86 134.5t-48 161t-18.5 151t-4 133zM338 684q0 -55 1 -90t7 -99.5t22.5 -107.5 t41 -88t68.5 -67.5t102 -22.5q137 0 187 122t50 361q0 63 -2 106.5t-8 107t-22.5 105.5t-40 84t-65.5 62.5t-95 20.5q-74 0 -125 -39t-76 -113t-35 -155t-10 -187z" />
<glyph unicode="1" d="M154 961v157h26q162 0 240 58q84 59 119 206h204v-1382h-251v850q0 66 -27 88.5t-74 22.5h-237z" />
<glyph unicode="2" d="M117 0v201q287 205 483 424q150 168 150 338q0 90 -47.5 148t-135.5 58q-66 0 -108.5 -28.5t-59 -80.5t-21.5 -91t-5 -95v-26l-256 24v11q0 215 98 348q47 66 141.5 120t233.5 54q190 0 313 -113q129 -115 129 -321q0 -119 -53 -230q-20 -41 -50 -84t-51.5 -70.5 t-70.5 -73.5t-63.5 -59.5t-78 -66.5t-67.5 -57q-106 -90 -147 -117h606v-213h-940z" />
<glyph unicode="3" d="M96 453h273q-4 -12 -4 -47q0 -18 6 -44t25.5 -66t67.5 -65.5t118 -25.5q106 0 161.5 65.5t55.5 153.5q0 72 -37 123q-53 78 -191 78h-82v215h89q119 0 161 63q29 41 29 98q0 78 -49 127.5t-127 49.5q-23 0 -47.5 -6.5t-62.5 -26t-62.5 -70.5t-26.5 -129l-270 58 q4 37 16.5 79.5t47 102t83.5 106.5t136.5 80t193.5 33q43 0 93 -8t113.5 -32t114 -62.5t85 -107.5t34.5 -157q0 -33 -6 -64.5t-25.5 -80.5t-70.5 -90t-127 -62q109 -23 185.5 -104.5t76.5 -228.5q0 -203 -143.5 -314.5t-351.5 -111.5q-236 0 -359 124t-123 347z" />
<glyph unicode="4" d="M35 317v181l606 884h252v-854h178v-211h-178v-317h-252v317h-606zM299 528h342l14 549z" />
<glyph unicode="5" d="M76 387l284 19q4 -90 56.5 -146.5t142.5 -56.5q119 0 172 84t53 194q0 41 -11 83t-34.5 84t-72 67.5t-111.5 25.5q-29 0 -61.5 -6t-78.5 -37.5t-67 -85.5l-229 15l96 759h768l-20 -231h-537l-47 -305q43 55 126 78.5t140 23.5q184 0 301 -129t117 -329q0 -211 -123 -349 q-145 -164 -393 -163q-195 0 -318 94q-139 110 -153 311z" />
<glyph unicode="6" d="M98 651q0 307 95 496q131 258 417 258q176 0 297 -102q100 -86 127 -244l-262 -35q0 72 -47 114t-115 42q-137 0 -194 -144q-45 -106 -49 -284q96 139 290 139q162 0 278 -113.5t116 -316.5q0 -201 -125 -340t-340 -139q-238 0 -363 173.5t-125 495.5zM389 434 q0 -113 55.5 -168t145.5 -55q18 0 36.5 2t51.5 14.5t55.5 35t41 67.5t18.5 106q0 98 -53.5 160.5t-143.5 62.5q-98 0 -152.5 -64.5t-54.5 -160.5z" />
<glyph unicode="7" d="M131 1145v241h918v-225q-66 -80 -138 -188q-156 -244 -245 -543q-63 -221 -82 -430h-338q16 121 44.5 236.5t70.5 219t79 184.5t91.5 168t84 134t79.5 117.5t61 85.5h-625z" />
<glyph unicode="8" d="M59 397q0 231 228 328q-70 31 -124 107.5t-54 191.5q0 172 133 276.5t344 104.5q213 0 341 -107.5t128 -283.5q0 -199 -181 -289q213 -117 213 -326q0 -182 -142 -299.5t-374 -117.5q-59 0 -121.5 10t-134 39.5t-127 74t-92.5 120t-37 171.5zM348 406q0 -92 64.5 -143.5 t171.5 -51.5q98 0 163.5 50t65.5 147q0 100 -66.5 150t-164.5 50q-106 0 -170 -54t-64 -148zM371 993q0 -94 59 -137t152 -43q111 0 157.5 53.5t46.5 126.5q0 82 -51 134.5t-155 52.5q-88 0 -148.5 -42.5t-60.5 -144.5z" />
<glyph unicode="9" d="M102 332l281 39q25 -162 168 -162q63 0 110.5 41t71 105.5t33.5 127t10 121.5v10q-86 -121 -276 -120q-186 0 -292 117.5t-106 316.5q0 201 124 339t345 138q129 0 224.5 -51t152 -141.5t84 -205t27.5 -251.5q0 -145 -25.5 -273.5t-84 -246t-169 -186t-262.5 -68.5 q-158 0 -274.5 90t-141.5 260zM369 952q0 -100 49 -168.5t145 -68.5q94 0 143.5 63.5t49.5 175.5q0 104 -55.5 166t-139.5 62q-92 0 -142 -70t-50 -160z" />
<glyph unicode=":" horiz-adv-x="512" d="M160 0v281h270v-281h-270zM160 760v282h270v-282h-270z" />
<glyph unicode=";" horiz-adv-x="512" d="M160 0v281h272v-299q0 -123 -62.5 -179.5t-195.5 -89.5v123q113 14 113 144v20h-127zM160 760v282h272v-282h-272z" />
<glyph unicode="&#x3c;" horiz-adv-x="1482" d="M231 526v252l953 467v-254l-709 -332l709 -335v-267z" />
<glyph unicode="=" horiz-adv-x="1482" d="M203 303v219h1077v-219h-1077zM203 719v219h1077v-219h-1077z" />
<glyph unicode="&#x3e;" horiz-adv-x="1482" d="M291 977v266l954 -469v-252l-952 -467v254l708 332z" />
<glyph unicode="?" d="M109 997q12 121 38 191q55 143 179.5 212.5t285.5 69.5q201 0 342.5 -114.5t141.5 -313.5q0 -119 -56.5 -202.5t-173.5 -165.5q-86 -59 -110.5 -102.5t-24.5 -141.5v-57h-239v51q0 223 57 303q31 45 101.5 91t116.5 96.5t46 127.5q0 84 -65.5 139.5t-149.5 55.5 q-115 0 -178.5 -76t-63.5 -192zM477 0v281h273v-281h-273z" />
<glyph unicode="@" horiz-adv-x="1835" d="M141 481q0 260 122 484.5t340 358.5t480 134q274 0 442.5 -160.5t168.5 -435.5q0 -168 -62.5 -334t-175.5 -276.5t-242 -110.5q-160 0 -178 158q-125 -158 -276 -158q-135 0 -206 98.5t-71 239.5q0 129 49.5 260t154 228.5t237.5 97.5q150 0 225 -147l25 104h161 l-67 -315q-57 -258 -58 -345q0 -76 52 -75q45 0 106 65q84 90 132 234.5t48 271.5q0 219 -131 341t-348 122t-399.5 -120t-284.5 -311.5t-102 -406.5q0 -281 181 -440.5t466 -159.5q186 0 361 80t313 219l82 -104q-328 -332 -756 -332q-176 0 -330 61q-459 180 -459 674z M670 489q0 -74 33.5 -132t111.5 -58q84 0 149.5 73.5t95.5 167t30 175.5q0 78 -40 136t-114 58q-84 0 -148.5 -75.5t-91 -169t-26.5 -175.5z" />
<glyph unicode="A" horiz-adv-x="1323" d="M12 0l490 1446h307l494 -1446h-289l-84 283h-543l-84 -283h-291zM459 520h399l-199 666z" />
<glyph unicode="B" horiz-adv-x="1409" d="M164 0v1446h647q215 0 326.5 -101.5t111.5 -252.5q0 -66 -22.5 -126.5t-78.5 -110.5t-138 -62q121 -23 214 -118t93 -265q0 -172 -116 -291t-372 -119h-665zM432 233h356q129 0 190.5 56.5t61.5 144.5q0 227 -307 228h-301v-429zM432 864h273q109 0 187.5 42t78.5 140.5 t-77 138.5t-181 40h-281v-361z" />
<glyph unicode="C" horiz-adv-x="1409" d="M76 737q0 100 22.5 200.5t74.5 200t129 175.5t195.5 123t264.5 47q133 0 238.5 -39t173 -107.5t109.5 -141.5t67 -159l-269 -69q-12 117 -100 192.5t-209 75.5q-180 0 -291.5 -133t-111.5 -369q0 -84 18.5 -165t60 -163.5t124.5 -134t198 -51.5q131 0 223 85t127 206 l256 -107q-18 -47 -42.5 -94t-78 -112.5t-118 -114.5t-166 -84t-219.5 -35q-133 0 -251 46t-215.5 137.5t-153.5 243.5t-56 347z" />
<glyph unicode="D" horiz-adv-x="1449" d="M145 0v1446h564q133 0 248.5 -43t210 -129t148.5 -230.5t54 -332.5q0 -344 -178 -527.5t-500 -183.5h-547zM416 244h168q102 0 172.5 9t137.5 37.5t105.5 80t61 135.5t22.5 205q0 492 -444 491h-223v-958z" />
<glyph unicode="E" horiz-adv-x="1280" d="M160 0v1446h1028v-242h-762v-340h698v-233h-698v-387h813v-244h-1079z" />
<glyph unicode="F" d="M166 0v1446h956v-242h-688v-360h604v-232h-604v-612h-268z" />
<glyph unicode="G" horiz-adv-x="1536" d="M94 709q0 104 25.5 210.5t81 209t135.5 180t198.5 126t260.5 48.5q221 0 379.5 -121t228.5 -305l-258 -103q-100 285 -352 285q-184 0 -294 -141.5t-110 -380.5q0 -35 4 -77t27.5 -123t62.5 -142.5t122 -108.5t194 -47q145 0 240.5 85t115.5 249h-360v238h608v-791h-234 v123q-172 -160 -397 -160q-131 0 -252 48t-216 139.5t-152.5 236t-57.5 322.5z" />
<glyph unicode="H" horiz-adv-x="1492" d="M164 0v1446h272v-545h621v545h272v-1446h-272v657h-621v-657h-272z" />
<glyph unicode="I" horiz-adv-x="598" d="M164 0v1446h266v-1446h-266z" />
<glyph unicode="J" horiz-adv-x="811" d="M53 -12v266q92 -20 144 -21q74 0 121 21.5t66 63.5t24.5 76t5.5 87v965h266v-1098q0 -41 -7 -82t-35 -97t-75 -98t-135 -72t-207 -30q-88 1 -168 19z" />
<glyph unicode="K" horiz-adv-x="1366" d="M164 0v1446h268v-664l580 664h317l-473 -545l506 -901h-309l-385 680l-236 -270v-410h-268z" />
<glyph unicode="L" horiz-adv-x="1067" d="M168 0v1446h272v-1200h574v-246h-846z" />
<glyph unicode="M" horiz-adv-x="1662" d="M156 0v1446h393l282 -1073l279 1073h391v-1446h-264l27 1188l-314 -1188h-243l-314 1188q27 -1141 27 -1188h-264z" />
<glyph unicode="N" horiz-adv-x="1449" d="M168 0v1446h244l641 -1020q-31 987 -33 1020h266v-1446h-237l-633 1014q16 -987 16 -1014h-264z" />
<glyph unicode="O" horiz-adv-x="1579" d="M98 721q0 324 193.5 543t501.5 219q213 0 373.5 -107.5t239.5 -276.5t79 -368q0 -104 -21.5 -206.5t-75 -205t-131 -180.5t-199.5 -127t-272 -49q-309 0 -498.5 221.5t-189.5 536.5zM377 731q0 -90 22.5 -176t69.5 -165t131 -127t195 -48q172 0 294.5 130t122.5 364 q0 135 -44 251.5t-142 195.5t-235 79q-182 0 -298 -135.5t-116 -368.5z" />
<glyph unicode="P" horiz-adv-x="1280" d="M168 0v1446h561q227 0 370.5 -131t143.5 -350q0 -211 -130 -342t-398 -131h-277v-492h-270zM438 713h238q289 0 289 260q0 68 -21.5 115t-51.5 71.5t-79 37.5t-83 15t-85 2h-207v-501z" />
<glyph unicode="Q" horiz-adv-x="1579" d="M74 723q0 334 189.5 547t498.5 213q297 0 494.5 -202t197.5 -536q0 -258 -104 -438q14 -37 84.5 -72.5t134.5 -35.5l28 4l-75 -260q-145 37 -310 178q-182 -158 -456 -158q-307 0 -494.5 210t-187.5 550zM362 715q0 -195 113 -344.5t301 -149.5q170 0 278.5 141.5 t108.5 362.5q0 213 -114.5 356.5t-292.5 143.5q-168 0 -281 -143.5t-113 -366.5z" />
<glyph unicode="R" horiz-adv-x="1323" d="M166 0v1446h592q213 0 345 -127t132 -332q0 -127 -64.5 -236.5t-220.5 -160.5l322 -590h-309l-285 537h-244v-537h-268zM434 762h209q317 0 318 227q0 223 -281 223h-246v-450z" />
<glyph unicode="S" horiz-adv-x="1366" d="M47 272l227 158q145 -217 449 -217q123 0 200.5 50t77.5 140q0 82 -60 117t-218 70l-184 41q-66 14 -115 29.5t-109.5 47t-98.5 72.5t-64.5 105.5t-26.5 146.5q0 199 152.5 325t418.5 126q369 0 584 -293l-223 -166q-131 215 -377 215q-31 0 -70 -6t-88 -23.5 t-80.5 -55.5t-31.5 -91q0 -33 14 -58.5t33.5 -41t58.5 -29.5t69.5 -22.5t88.5 -20.5l151 -33q98 -20 171 -47t147 -75t112.5 -124.5t38.5 -181.5q0 -102 -40 -185t-102 -134.5t-145 -86t-164 -48t-163 -13.5q-199 0 -371 75.5t-262 233.5z" />
<glyph unicode="T" d="M45 1202v244h1063v-244h-399v-1202h-271v1202h-393z" />
<glyph unicode="U" horiz-adv-x="1492" d="M164 586v860h272v-889q0 -117 15 -160q53 -172 297 -172q233 0 292 164q18 53 19 182v875h270v-895q0 -178 -24 -256q-43 -131 -184.5 -231.5t-383.5 -100.5q-193 0 -345 81t-206 247q-22 74 -22 295z" />
<glyph unicode="V" horiz-adv-x="1236" d="M16 1446h285l324 -1141l315 1141h279l-412 -1446h-365z" />
<glyph unicode="W" horiz-adv-x="1705" d="M25 1446h276l197 -1102l225 1102h252l229 -1102l203 1102h279l-318 -1446h-315l-203 1006l-209 -1006h-315z" />
<glyph unicode="X" horiz-adv-x="1323" d="M18 0l486 784l-416 662h311l263 -414l251 414h314l-408 -662l490 -784h-310l-337 535l-330 -535h-314z" />
<glyph unicode="Y" horiz-adv-x="1280" d="M20 1446h308l313 -598l315 598h304l-488 -875v-571h-268v571z" />
<glyph unicode="Z" horiz-adv-x="1236" d="M49 0v221l791 983h-723v242h1061v-229l-760 -973h760v-244h-1129z" />
<glyph unicode="[" horiz-adv-x="583" d="M121 -295v1890h420v-149h-199v-1593h199v-148h-420z" />
<glyph unicode="\" horiz-adv-x="980" d="M27 1446h243l686 -1446h-243z" />
<glyph unicode="]" horiz-adv-x="583" d="M41 -145h199v1593h-199v147h420v-1890h-420v150z" />
<glyph unicode="^" horiz-adv-x="1482" d="M188 582l428 864h258l422 -864h-268l-278 630l-283 -630h-279z" />
<glyph unicode="_" horiz-adv-x="1024" d="M-20 -266h1064v-189h-1064v189z" />
<glyph unicode="`" horiz-adv-x="555" d="M72 1446h305l106 -272h-182z" />
<glyph unicode="a" horiz-adv-x="1110" d="M53 289q0 281 365 346q207 39 315 76q0 72 -35.5 112.5t-140.5 40.5q-207 0 -207 -153l-250 14q2 25 4 41t12.5 53t27 64.5t50 61.5t78.5 56.5t117 38t160 15.5q430 0 430 -291v-598q0 -59 7 -89t38 -77h-291l-6 80q-133 -104 -301 -105q-170 0 -271.5 90.5t-101.5 223.5 zM313 311q0 -55 41 -90t127 -35q96 0 174 48.5t78 138.5v137q-80 -39 -194 -57q-51 -8 -84 -15.5t-70 -23t-54.5 -41t-17.5 -62.5z" />
<glyph unicode="b" horiz-adv-x="1193" d="M131 0v1446h246v-508q117 117 293 117q184 0 317 -149.5t133 -387.5q0 -256 -142 -402.5t-323 -146.5q-162 0 -280 137v-106h-244zM373 537q0 -162 67.5 -248t182.5 -86q104 0 174.5 88t70.5 246q0 115 -66.5 204.5t-189.5 89.5q-109 0 -174 -83.5t-65 -210.5z" />
<glyph unicode="c" horiz-adv-x="1058" d="M49 512q0 215 139.5 379t378.5 164q94 0 174 -31t132.5 -80t85 -93t49.5 -87l-220 -102q-57 174 -233 174q-119 0 -185.5 -91.5t-66.5 -226.5q0 -139 68.5 -229t189.5 -90q172 0 248 200l209 -110q-53 -150 -179 -235t-284 -85q-223 0 -364.5 156t-141.5 387z" />
<glyph unicode="d" horiz-adv-x="1193" d="M74 492q0 262 136 412.5t329 150.5q74 0 150.5 -29t123.5 -86v506h244v-1446h-244v98q-109 -129 -285 -129q-182 0 -318 132.5t-136 390.5zM330 518q0 -131 59.5 -228t183.5 -97q102 0 170 80.5t68 220.5q0 141 -53 237t-183 96q-113 0 -179 -88t-66 -221z" />
<glyph unicode="e" d="M70 518q0 260 149.5 398.5t364.5 138.5q139 0 242.5 -52.5t157.5 -141.5t78.5 -187.5t24.5 -210.5h-757q2 -20 8 -47t26.5 -65t50 -68.5t83 -52t120.5 -21.5q184 0 269 141l209 -121q-193 -260 -500 -260q-233 0 -379.5 148.5t-146.5 400.5zM338 643h479q-2 27 -11 56.5 t-31.5 68.5t-71 64.5t-115.5 25.5q-70 0 -122 -25.5t-78 -68.5t-35 -68.5t-15 -52.5z" />
<glyph unicode="f" horiz-adv-x="641" d="M8 850v174h154v141q0 145 67.5 214t262.5 69q61 0 139 -10v-209q-18 6 -78 6q-51 0 -82 -12.5t-44 -36t-16 -43t-3 -49.5v-70h223v-174h-223v-850h-246v850h-154z" />
<glyph unicode="g" horiz-adv-x="1193" d="M70 547q0 250 139 379t323 129q195 0 289 -140v109h244v-973q0 -393 -494 -393q-135 0 -228 28.5t-140 82t-66.5 98.5t-34.5 110h271q14 -70 77.5 -98.5t127.5 -28.5q119 0 181 51.5t62 176.5v90q-121 -109 -309 -109q-182 0 -312 122t-130 366zM322 553 q0 -123 66.5 -196.5t186.5 -73.5q119 0 185.5 70.5t66.5 191.5q0 127 -65.5 209t-188.5 82q-104 0 -177.5 -72t-73.5 -211z" />
<glyph unicode="h" horiz-adv-x="1193" d="M129 0v1446h246v-526q131 135 323 135q170 0 268.5 -94.5t98.5 -268.5v-692h-242v600q0 111 -50 166t-142 55q-104 0 -180 -71.5t-76 -182.5v-567h-246z" />
<glyph unicode="i" horiz-adv-x="512" d="M133 0v1024h244v-1024h-244zM133 1184v248h244v-248h-244z" />
<glyph unicode="j" horiz-adv-x="512" d="M2 -106q2 0 14.5 1t23.5 3t27.5 7t28.5 13q41 25 41 107v999h242v-1118q0 -37 -7 -66.5t-34 -75t-98.5 -72t-180.5 -26.5q-20 0 -57 4v224zM137 1186v250h242v-250h-242z" />
<glyph unicode="k" horiz-adv-x="1110" d="M131 0v1446h244v-813l399 391h313l-391 -391l430 -633h-299l-309 459l-143 -142v-317h-244z" />
<glyph unicode="l" horiz-adv-x="512" d="M133 0v1446h250v-1446h-250z" />
<glyph unicode="m" horiz-adv-x="1792" d="M129 0v1024h248v-115q39 53 127 99.5t194 46.5q90 0 167 -40t118 -116q121 156 330 156q162 0 257 -88t95 -267v-700h-244v627q0 25 -4 49t-19.5 63t-53 62.5t-95.5 23.5q-119 0 -182 -104q-49 -78 -49 -240v-481h-244v629q0 76 -39 135t-129 59q-70 0 -129 -49 q-47 -39 -70.5 -105.5t-27.5 -113.5t-4 -125v-430h-246z" />
<glyph unicode="n" d="M129 0v1024h248v-121q41 63 114.5 100t118.5 44.5t82 7.5q160 0 246 -93.5t86 -248.5v-713h-242v575q0 240 -180 240q-74 0 -129 -47q-55 -45 -75.5 -116.5t-20.5 -207.5v-444h-248z" />
<glyph unicode="o" horiz-adv-x="1193" d="M72 516q0 131 53 250t176 204t295 85q88 0 177 -31t169 -91.5t131 -169t51 -247.5q0 -223 -137 -385t-383 -162q-109 0 -199 33t-150 87t-102 126t-61.5 147.5t-19.5 153.5zM328 522q0 -141 74.5 -234t201.5 -93t195.5 91t68.5 218q0 135 -71.5 232.5t-204.5 97.5 q-113 0 -188.5 -81t-75.5 -231z" />
<glyph unicode="p" horiz-adv-x="1193" d="M131 -334v1358h246v-92q117 123 280 123q201 0 328 -150q137 -164 137 -401q0 -203 -102 -346q-133 -188 -365 -189q-156 0 -278 115v-418h-246zM373 518q0 -137 66.5 -226t185.5 -89q41 0 79.5 14t78.5 46t63.5 97.5t23.5 155.5q0 147 -75.5 225t-176.5 78 q-121 0 -183 -90t-62 -211z" />
<glyph unicode="q" d="M51 502q0 119 33 219q47 145 164 239.5t266 94.5q84 0 161 -36t122 -104v109h243v-1358h-243v430q-121 -127 -293 -127q-205 0 -326 144q-127 149 -127 389zM303 504q0 -129 61.5 -219t186.5 -90q111 0 178.5 80.5t67.5 226.5q0 123 -59.5 218t-188.5 95 q-109 0 -177.5 -82t-68.5 -229z" />
<glyph unicode="r" horiz-adv-x="724" d="M131 0v1024h238v-145q80 168 305 168h20v-252q-248 0 -307 -189q-18 -57 -18 -168v-438h-238z" />
<glyph unicode="s" horiz-adv-x="1067" d="M45 154l184 149q98 -131 295 -131q100 0 150.5 39t50.5 82q0 41 -37 62.5t-115 35.5l-127 23q-356 63 -356 307q0 150 126 242t314 92q276 0 441 -191l-174 -162q-80 156 -279 156q-33 0 -66.5 -6t-68.5 -31.5t-35 -68.5q0 -47 45 -71t164 -44l166 -31 q123 -23 198.5 -95.5t75.5 -191.5q0 -145 -127 -247.5t-333 -102.5q-314 1 -492 185z" />
<glyph unicode="t" horiz-adv-x="641" d="M8 850v174h150v365h245v-365h220v-174h-220v-508q0 -82 25 -109q29 -31 92 -30q57 0 103 12v-207q-131 -16 -177 -16q-160 0 -224 59.5t-64 188.5v610h-150z" />
<glyph unicode="u" horiz-adv-x="1193" d="M127 381v643h248v-590q0 -227 200 -227q78 0 128.5 37t70.5 78q39 76 39 245v457h246v-1024h-246v104q-139 -129 -332 -129q-205 0 -295 136q-59 88 -59 270z" />
<glyph unicode="v" horiz-adv-x="980" d="M27 1024h254l213 -705l208 705h256l-337 -1024h-263z" />
<glyph unicode="w" horiz-adv-x="1536" d="M35 1024h256l178 -700l190 700h220l188 -700l182 700h256l-307 -1024h-244l-184 653l-195 -653h-243z" />
<glyph unicode="x" horiz-adv-x="1024" d="M18 0l353 549l-312 475h289l168 -258l162 258h293l-309 -475l350 -549h-283l-213 324l-205 -324h-293z" />
<glyph unicode="y" horiz-adv-x="980" d="M25 1024h264l229 -764l193 764h252l-273 -934q-27 -94 -44 -146.5t-54 -127t-76 -107.5q-76 -61 -209 -61q-78 0 -145 14v213q25 -4 67 -4q133 0 166 109z" />
<glyph unicode="z" horiz-adv-x="1024" d="M63 0v188l553 617h-497v219h821v-190l-541 -617h541v-217h-877z" />
<glyph unicode="{" horiz-adv-x="614" d="M29 573v154q104 8 140 48t36 169v371q0 156 62.5 221.5t207.5 65.5h115v-148h-35q-78 0 -102.5 -38t-24.5 -144v-346q0 -127 -34 -182.5t-134 -96.5q88 -23 128 -83t40 -183v-354q0 -98 24.5 -140.5t108.5 -42.5h29v-147h-127q-137 0 -197.5 66.5t-60.5 218.5v374 q0 129 -33.5 166t-142.5 51z" />
<glyph unicode="|" horiz-adv-x="505" d="M139 -293v1888h223v-1888h-223z" />
<glyph unicode="}" horiz-adv-x="614" d="M25 -156h34q78 0 102.5 38t24.5 145v346q0 127 34 182t134 96q-88 23 -128 83.5t-40 183.5v354q0 98 -24.5 140t-108.5 42h-28v148h127q137 0 198.5 -69t61.5 -216v-387q0 -125 31.5 -158t142.5 -47v-154q-104 -8 -139 -47t-35 -166v-370q0 -156 -62.5 -223.5 t-206.5 -67.5h-118v147z" />
<glyph unicode="~" horiz-adv-x="1482" d="M147 651q84 115 155 160t169 45q88 0 260 -78l105 -47q113 -51 161 -51q119 0 248 160l92 -205q-164 -203 -338 -203q-86 0 -247 78l-72 35q-129 61 -213 61q-59 0 -101 -30.5t-128 -131.5z" />
<glyph unicode="&#xa1;" horiz-adv-x="512" d="M82 0v555l78 532h114l76 -532v-555h-268zM82 1163v283h268v-283h-268z" />
<glyph unicode="&#xa2;" horiz-adv-x="1024" d="M45 522q0 203 108.5 352.5t327.5 194.5v203h160v-203q80 -10 141.5 -39t105.5 -78t64.5 -79.5t51.5 -86.5l-218 -102q-43 84 -69.5 117t-79.5 45v-631q57 16 97 60t51.5 74t17.5 57l209 -113q-45 -131 -145.5 -214t-227.5 -97v-203h-160v203q-115 16 -202 71.5t-129 119 t-67.5 142t-30.5 123.5t-5 84zM297 532q0 -258 180 -309v625q-180 -78 -180 -316z" />
<glyph unicode="&#xa3;" horiz-adv-x="1280" d="M100 217q0 96 62.5 159.5t167.5 63.5q63 0 149 -28q6 23 6 32q0 80 -57 119h-266v217h164q-86 109 -86 248q0 182 136 288.5t333 106.5q84 0 160.5 -24.5t144 -72.5t107.5 -135t40 -202q0 -80 -2 -100h-266q10 45 10 86q0 90 -57.5 154.5t-145.5 64.5q-74 0 -132 -49 t-58 -141q0 -27 6 -54.5t15.5 -48t22.5 -43t22.5 -35t20.5 -27t13 -16.5h252v-217h-160q12 -90 13 -147q0 -63 -13 -123q84 -59 142 -60q109 0 108 193v49h265q0 -57 -4.5 -109.5t-23 -127t-50 -127t-93 -90t-143.5 -37.5q-23 0 -44 2t-46 9t-38 10t-41.5 16.5t-37 16.5 t-44.5 21.5t-42 20.5q-6 -4 -34.5 -19.5t-38 -20.5t-34 -17.5t-38.5 -16.5t-35.5 -11t-42 -9t-41.5 -2q-109 0 -177.5 64.5t-68.5 168.5zM295 205q0 -14 13.5 -28.5t39.5 -14.5q55 0 82 55q-45 35 -80 35q-27 0 -41 -15.5t-14 -31.5z" />
<glyph unicode="&#xa4;" horiz-adv-x="1363" d="M63 221l160 158q-100 145 -100 315q0 168 100 316l-157 155l143 144l158 -156q141 100 317 100q166 0 311 -100l160 158l145 -146l-159 -157q98 -156 98 -314q0 -162 -100 -317l159 -160l-145 -143l-160 159q-92 -55 -158.5 -75.5t-154.5 -20.5q-166 0 -313 99l-160 -158 zM346 696.5q0 -143.5 97.5 -242t242.5 -98.5q139 0 235.5 97.5t96.5 236.5q0 145 -96.5 244.5t-239.5 99.5t-239.5 -97t-96.5 -240.5z" />
<glyph unicode="&#xa5;" horiz-adv-x="1236" d="M6 1405h305l305 -584l314 584h301l-297 -524h172v-203h-291l-70 -125h361v-203h-361v-350h-264v350h-362v203h360l-63 125h-297v203h182z" />
<glyph unicode="&#xa6;" horiz-adv-x="505" d="M141 -295v821h224v-821h-224zM141 770v823h224v-823h-224z" />
<glyph unicode="&#xa7;" horiz-adv-x="1323" d="M88 770q0 102 57.5 174t159.5 131q-80 70 -80 180q0 147 120 223t276 76q268 0 485 -137l-115 -172q-10 4 -55 23.5t-60.5 25.5t-53.5 20.5t-59.5 19.5t-54 10.5t-61.5 5.5q-49 0 -98 -15.5t-49 -52.5q0 -12 3 -22.5t13 -19.5t16.5 -15t21.5 -14.5t21.5 -11.5t24.5 -11 t21 -8l190 -82q70 -31 99.5 -44.5t92 -46t94 -61t69.5 -70.5t54.5 -92.5t16.5 -107.5q0 -109 -59.5 -195t-159.5 -133q84 -90 84 -188.5t-66.5 -168t-154.5 -97t-185 -27.5q-129 0 -268 43t-242 119l119 168q190 -125 383 -125q53 0 96 19.5t43 66.5q0 39 -75.5 78.5 t-184 84t-218 99.5t-185.5 146t-76 204zM348 811q0 -45 32 -83t59.5 -53.5t82.5 -39.5l115 -51q80 -35 235 -113q90 68 91 160q0 84 -83 140t-302 142l-109 43q-121 -43 -121 -145z" />
<glyph unicode="&#xa8;" horiz-adv-x="555" d="M-45 1202v244h231v-244h-231zM365 1202v244h235v-244h-235z" />
<glyph unicode="&#xa9;" horiz-adv-x="1693" d="M119 723q0 305 213 517t516 212q299 0 514 -210t215 -505q0 -317 -209 -530t-522 -213q-303 0 -515 213t-212 516zM201 721q0 -272 188.5 -461.5t456.5 -189.5q266 0 457.5 189.5t191.5 451.5q0 285 -185.5 475t-463.5 190q-268 0 -456.5 -191.5t-188.5 -463.5zM428 719 q0 205 120 341t302 136q109 0 184.5 -37t159.5 -133l-129 -133q-59 70 -105.5 95.5t-105.5 25.5q-100 0 -160.5 -80t-60.5 -213t59.5 -212t159.5 -79q119 0 213 115l129 -129q-82 -94 -162 -133t-182 -39q-188 0 -305 132t-117 343z" />
<glyph unicode="&#xaa;" horiz-adv-x="681" d="M80 1044q0 70 42 112t93 54.5t128 26.5t112 29v10q0 76 -97 76q-109 0 -108 -84l-144 10q4 76 62.5 130t181.5 54q35 0 70 -5t78 -19.5t69.5 -50t26.5 -87.5v-337q0 -47 24 -91h-141q-14 41 -14 46q-86 -57 -182 -58q-82 0 -141.5 49t-59.5 135zM229 1044q0 -59 84 -59 q55 0 96.5 24.5t41.5 75.5v62q-31 -12 -95.5 -23.5t-95.5 -27t-31 -52.5z" />
<glyph unicode="&#xab;" horiz-adv-x="894" d="M121 500v288l291 230v-230l-181 -147l181 -141v-228zM492 500v288l292 234v-234l-176 -145l176 -143v-230z" />
<glyph unicode="&#xac;" horiz-adv-x="1482" d="M141 528v224h1159v-719h-266v495h-893z" />
<glyph unicode="&#xad;" horiz-adv-x="761" d="M84 506v231h592v-231h-592z" />
<glyph unicode="&#xae;" horiz-adv-x="1693" d="M119 723q0 305 213 517t516 212q299 0 514 -210t215 -505q0 -317 -209 -530t-522 -213q-303 0 -515 213t-212 516zM201 721q0 -272 188.5 -461.5t456.5 -189.5q266 0 457.5 189.5t191.5 451.5q0 285 -185.5 475t-463.5 190q-268 0 -456.5 -191.5t-188.5 -463.5zM539 274 v914h301q154 0 221 -41q57 -35 90 -101.5t33 -146.5q0 -88 -37 -145.5t-119 -100.5l160 -379h-209l-129 347h-121v-347h-190zM729 780h119q143 0 143 119q0 117 -137 117h-125v-236z" />
<glyph unicode="&#xaf;" horiz-adv-x="555" d="M-72 1200v184h699v-184h-699z" />
<glyph unicode="&#xb0;" horiz-adv-x="724" d="M10 1192q0 147 102.5 250.5t250 103.5t250 -103.5t102.5 -250.5q0 -143 -103.5 -247.5t-249 -104.5t-249 104.5t-103.5 247.5zM215 1192q0 -59 44 -103.5t103.5 -44.5t103.5 44.5t44 103.5q0 61 -43 103t-104.5 42t-104.5 -42t-43 -103z" />
<glyph unicode="&#xb1;" horiz-adv-x="1482" d="M190 0v219h1102v-219h-1102zM190 748v219h418v407h266v-407h418v-219h-418v-416h-266v416h-418z" />
<glyph unicode="&#xb2;" horiz-adv-x="768" d="M70 1042l2 23q25 330 307 330q131 0 213 -74t82 -207q0 -51 -11.5 -96t-42 -91t-53 -76t-79 -80t-81.5 -71l-98 -77h383v-146h-618v135q410 283 409 496q0 68 -34.5 97.5t-75.5 29.5q-31 0 -53.5 -12.5t-35 -25.5t-20.5 -41t-10 -43t-4 -48t-2 -37z" />
<glyph unicode="&#xb3;" horiz-adv-x="768" d="M43 756v22h178v-8q0 -20 4 -40.5t17.5 -50.5t46.5 -49.5t80 -19.5q61 0 99 40t38 104q0 43 -20.5 72.5t-52.5 40t-50 13.5t-35 3h-51v145h61q129 0 129 100q0 49 -30.5 80t-87.5 31q-66 0 -92.5 -40t-36.5 -109l-174 38q20 139 112 203t207 64q139 0 212 -77t73 -171 q0 -141 -148 -186q35 -12 56.5 -23.5t51 -34t44 -61.5t14.5 -92q0 -137 -93 -213t-228 -76q-55 0 -107.5 13t-104 45t-82 92.5t-30.5 144.5z" />
<glyph unicode="&#xb4;" horiz-adv-x="555" d="M74 1174l102 272h305l-221 -272h-186z" />
<glyph unicode="&#xb5;" horiz-adv-x="1222" d="M154 -442v1466h252v-475q0 -217 40 -279q51 -78 152 -77q94 0 147.5 79.5t53.5 225.5v526h250v-715q0 -72 15 -99.5t54 -27.5q18 0 58 17v-201q-70 -18 -136 -18q-88 0 -138 37.5t-75 123.5q-39 -88 -91 -124.5t-138 -36.5q-129 0 -205 118q6 -481 6 -540h-245z" />
<glyph unicode="&#xb6;" horiz-adv-x="1310" d="M145 1028q0 186 114 302t364 116h477v-143h-72v-1645h-151v1645h-263v-1645h-151v979q-150 29 -234 131t-84 260z" />
<glyph unicode="&#xb7;" horiz-adv-x="448" d="M88 444v299h272v-299h-272z" />
<glyph unicode="&#xb8;" horiz-adv-x="555" d="M72 -188l204 213h93l-93 -119h15q109 0 150.5 -41t41.5 -90q0 -156 -317 -156q-55 0 -84 2v64q27 -2 37 -2q129 0 129 53q0 49 -135 49q-16 0 -41 -4v31z" />
<glyph unicode="&#xb9;" horiz-adv-x="768" d="M131 1094v125h43q190 0 207 174h145v-916h-174v561q0 31 -16.5 43.5t-75.5 12.5h-129z" />
<glyph unicode="&#xba;" horiz-adv-x="681" d="M49 1155q0 131 82 219t215 88q131 0 209 -88t78 -217q0 -119 -75 -213t-220 -94q-129 0 -209 89t-80 216zM199 1157q0 -66 33.5 -122t109.5 -56q57 0 101 46t44 136q0 66 -34.5 120t-106.5 54q-57 0 -102 -44t-45 -134z" />
<glyph unicode="&#xbb;" horiz-adv-x="894" d="M106 264v232l177 147l-177 141v232l293 -232v-288zM481 268v228l178 149l-178 139v230l291 -230v-288z" />
<glyph unicode="&#xbc;" horiz-adv-x="1792" d="M131 1094v125h43q190 0 207 174h145v-916h-174v561q0 31 -16.5 43.5t-75.5 12.5h-129zM487 -12l646 1401l139 -66l-643 -1399zM1069 207v129l397 569h170v-555h115v-147h-121v-203h-164v207h-397zM1251 352h222q0 150 4 346z" />
<glyph unicode="&#xbd;" horiz-adv-x="1792" d="M131 1094v125h43q190 0 207 174h145v-916h-174v561q0 31 -16.5 43.5t-75.5 12.5h-129zM469 -12l645 1401l139 -66l-643 -1399zM1096 565q0 31 2 61.5t19.5 88t47 98.5t92 74t146.5 33q86 0 148.5 -30t92 -77t42 -91t12.5 -87q0 -121 -75 -219.5t-292 -270.5h385v-145 h-618v137q131 88 220 172t126 148.5t50 103.5t13 70q0 68 -34.5 97.5t-75.5 29.5q-37 0 -60.5 -12.5t-35 -39t-16.5 -46t-8 -57.5t-5 -50z" />
<glyph unicode="&#xbe;" horiz-adv-x="1792" d="M43 756v22h178v-8q0 -20 4 -40.5t17.5 -50.5t46.5 -49.5t80 -19.5q61 0 99 40t38 104q0 43 -20.5 72.5t-52.5 40t-50 13.5t-35 3h-51v145h61q129 0 129 100q0 49 -30.5 80t-87.5 31q-66 0 -92.5 -40t-36.5 -109l-174 38q20 139 112 203t207 64q139 0 212 -77t73 -171 q0 -141 -148 -186q35 -12 56.5 -23.5t51 -34t44 -61.5t14.5 -92q0 -137 -93 -213t-228 -76q-55 0 -107.5 13t-104 45t-82 92.5t-30.5 144.5zM537 -12l645 1401l137 -66l-641 -1399zM1069 207v129l397 569h170v-555h115v-147h-121v-203h-164v207h-397zM1251 352h222 q0 150 4 346z" />
<glyph unicode="&#xbf;" d="M53 403q0 121 55.5 204t174.5 165q86 59 110.5 102.5t24.5 141.5v57h239v-51q0 -223 -57 -303q-31 -45 -101.5 -91t-116.5 -96.5t-46 -128.5q0 -84 65.5 -139t149.5 -55q115 0 178.5 75.5t63.5 192.5l247 -28q-12 -121 -39 -191q-55 -143 -179 -213t-285 -70 q-201 0 -342.5 114.5t-141.5 313.5zM399 1165v281h273v-281h-273z" />
<glyph unicode="&#xc0;" horiz-adv-x="1323" d="M12 0l490 1446h307l494 -1446h-289l-84 283h-543l-84 -283h-291zM379 1833h291l112 -248h-184zM459 520h399l-199 666z" />
<glyph unicode="&#xc1;" horiz-adv-x="1323" d="M12 0l490 1446h307l494 -1446h-289l-84 283h-543l-84 -283h-291zM459 520h399l-199 666zM547 1587l110 246h293l-221 -246h-182z" />
<glyph unicode="&#xc2;" horiz-adv-x="1323" d="M12 0l490 1446h307l494 -1446h-289l-84 283h-543l-84 -283h-291zM336 1583l207 250h239l215 -250h-247l-88 115l-87 -115h-239zM459 520h399l-199 666z" />
<glyph unicode="&#xc3;" horiz-adv-x="1323" d="M12 0l490 1446h307l494 -1446h-289l-84 283h-543l-84 -283h-291zM334 1575q25 256 196 256q59 0 147.5 -36t115.5 -36q49 0 59 74h156q-4 -57 -10.5 -92t-25 -79t-57 -66.5t-98 -22.5t-146.5 38t-124 38q-51 0 -60 -74h-153zM459 520h399l-199 666z" />
<glyph unicode="&#xc4;" horiz-adv-x="1323" d="M12 0l490 1446h307l494 -1446h-289l-84 283h-543l-84 -283h-291zM350 1581v252h230v-252h-230zM459 520h399l-199 666zM760 1581v252h233v-252h-233z" />
<glyph unicode="&#xc5;" horiz-adv-x="1323" d="M12 0l490 1446h307l494 -1446h-289l-84 283h-543l-84 -283h-291zM459 520h399l-199 666zM461 1765q0 86 60.5 146.5t148.5 60.5q86 0 146.5 -61.5t60.5 -147.5t-60.5 -146.5t-148.5 -60.5q-86 0 -146.5 60.5t-60.5 148.5zM582 1763.5q0 -34.5 26.5 -60.5t61.5 -26 t59.5 27t24.5 61.5t-26 59t-60.5 24.5t-60 -25.5t-25.5 -60z" />
<glyph unicode="&#xc6;" horiz-adv-x="2134" d="M12 0l856 1446h1186v-242h-754v-344h656v-237h-656v-377h785v-246h-1057v338h-508l-192 -338h-316zM657 582h371v661z" />
<glyph unicode="&#xc7;" horiz-adv-x="1409" d="M76 737q0 100 22.5 200.5t74.5 200t129 175.5t195.5 123t264.5 47q133 0 238.5 -39t173 -107.5t109.5 -141.5t67 -159l-269 -69q-12 117 -100 192.5t-209 75.5q-180 0 -291.5 -133t-111.5 -369q0 -84 18.5 -165t60 -163.5t124.5 -134t198 -51.5q131 0 223 85t127 206 l256 -107q-18 -47 -41.5 -92t-75 -109.5t-112 -111.5t-156.5 -84t-209 -41l-45 -59h15q109 0 150.5 -41t41.5 -90q0 -156 -317 -156q-55 0 -84 2v64q27 -2 37 -2q129 0 129 53q0 49 -136 49q-16 0 -41 -4v31l150 155q-123 10 -229.5 62.5t-192.5 143.5t-135 236.5t-49 327.5 z" />
<glyph unicode="&#xc8;" horiz-adv-x="1280" d="M160 0v1446h1028v-242h-762v-340h698v-233h-698v-387h813v-244h-1079zM356 1833h291l113 -248h-185z" />
<glyph unicode="&#xc9;" horiz-adv-x="1280" d="M160 0v1446h1028v-242h-762v-340h698v-233h-698v-387h813v-244h-1079zM526 1587l111 246h293l-221 -246h-183z" />
<glyph unicode="&#xca;" horiz-adv-x="1280" d="M160 0v1446h1028v-242h-762v-340h698v-233h-698v-387h813v-244h-1079zM315 1583l207 250h240l215 -250h-248l-88 115l-86 -115h-240z" />
<glyph unicode="&#xcb;" horiz-adv-x="1280" d="M160 0v1446h1028v-242h-762v-340h698v-233h-698v-387h813v-244h-1079zM322 1581v252h229v-252h-229zM731 1581v252h234v-252h-234z" />
<glyph unicode="&#xcc;" horiz-adv-x="598" d="M16 1833h291l113 -248h-184zM164 0v1446h266v-1446h-266z" />
<glyph unicode="&#xcd;" horiz-adv-x="598" d="M164 0v1446h266v-1446h-266zM184 1587l111 246h293l-221 -246h-183z" />
<glyph unicode="&#xce;" horiz-adv-x="598" d="M-27 1583l207 250h240l215 -250h-248l-88 115l-86 -115h-240zM164 0v1446h266v-1446h-266z" />
<glyph unicode="&#xcf;" horiz-adv-x="598" d="M-20 1581v252h229v-252h-229zM164 0v1446h266v-1446h-266zM389 1581v252h234v-252h-234z" />
<glyph unicode="&#xd0;" horiz-adv-x="1449" d="M6 668v184h139v594h476q205 0 301 -29q195 -59 321.5 -238.5t126.5 -463.5q0 -92 -16.5 -182.5t-55 -188.5t-120.5 -178t-197 -121q-123 -45 -350 -45h-486v668h-139zM416 244h114q221 0 301 22q129 35 190.5 141.5t61.5 303.5q0 385 -268 469q-76 23 -197 22h-202v-350 h315v-184h-315v-424z" />
<glyph unicode="&#xd1;" horiz-adv-x="1449" d="M168 0v1446h244l641 -1020q-31 987 -33 1020h266v-1446h-237l-633 1014q16 -987 16 -1014h-264zM397 1575q25 256 197 256q59 0 147 -36t115 -36q49 0 59 74h156q-4 -57 -10 -92t-24.5 -79t-57.5 -66.5t-98.5 -22.5t-146.5 38t-124 38q-51 0 -59 -74h-154z" />
<glyph unicode="&#xd2;" horiz-adv-x="1579" d="M98 721q0 324 193.5 543t501.5 219q213 0 373.5 -107.5t239.5 -276.5t79 -368q0 -104 -21.5 -206.5t-75 -205t-131 -180.5t-199.5 -127t-272 -49q-309 0 -498.5 221.5t-189.5 536.5zM377 731q0 -90 22.5 -176t69.5 -165t131 -127t195 -48q172 0 294.5 130t122.5 364 q0 135 -44 251.5t-142 195.5t-235 79q-182 0 -298 -135.5t-116 -368.5zM506 1833h291l112 -248h-184z" />
<glyph unicode="&#xd3;" horiz-adv-x="1579" d="M98 721q0 324 193.5 543t501.5 219q213 0 373.5 -107.5t239.5 -276.5t79 -368q0 -104 -21.5 -206.5t-75 -205t-131 -180.5t-199.5 -127t-272 -49q-309 0 -498.5 221.5t-189.5 536.5zM377 731q0 -90 22.5 -176t69.5 -165t131 -127t195 -48q172 0 294.5 130t122.5 364 q0 135 -44 251.5t-142 195.5t-235 79q-182 0 -298 -135.5t-116 -368.5zM676 1587l110 246h293l-221 -246h-182z" />
<glyph unicode="&#xd4;" horiz-adv-x="1579" d="M98 721q0 324 193.5 543t501.5 219q213 0 373.5 -107.5t239.5 -276.5t79 -368q0 -104 -21.5 -206.5t-75 -205t-131 -180.5t-199.5 -127t-272 -49q-309 0 -498.5 221.5t-189.5 536.5zM377 731q0 -90 22.5 -176t69.5 -165t131 -127t195 -48q172 0 294.5 130t122.5 364 q0 135 -44 251.5t-142 195.5t-235 79q-182 0 -298 -135.5t-116 -368.5zM463 1583l207 250h239l215 -250h-247l-89 115l-86 -115h-239z" />
<glyph unicode="&#xd5;" horiz-adv-x="1579" d="M98 721q0 324 193.5 543t501.5 219q213 0 373.5 -107.5t239.5 -276.5t79 -368q0 -104 -21.5 -206.5t-75 -205t-131 -180.5t-199.5 -127t-272 -49q-309 0 -498.5 221.5t-189.5 536.5zM377 731q0 -90 22.5 -176t69.5 -165t131 -127t195 -48q172 0 294.5 130t122.5 364 q0 135 -44 251.5t-142 195.5t-235 79q-182 0 -298 -135.5t-116 -368.5zM461 1575q25 256 196 256q59 0 147.5 -36t115.5 -36q49 0 59 74h156q-4 -57 -10.5 -92t-25 -79t-57 -66.5t-98 -22.5t-146.5 38t-124 38q-51 0 -60 -74h-153z" />
<glyph unicode="&#xd6;" horiz-adv-x="1579" d="M98 721q0 324 193.5 543t501.5 219q213 0 373.5 -107.5t239.5 -276.5t79 -368q0 -104 -21.5 -206.5t-75 -205t-131 -180.5t-199.5 -127t-272 -49q-309 0 -498.5 221.5t-189.5 536.5zM377 731q0 -90 22.5 -176t69.5 -165t131 -127t195 -48q172 0 294.5 130t122.5 364 q0 135 -44 251.5t-142 195.5t-235 79q-182 0 -298 -135.5t-116 -368.5zM473 1581v252h229v-252h-229zM883 1581v252h233v-252h-233z" />
<glyph unicode="&#xd7;" horiz-adv-x="1482" d="M264 930l185 190l315 -305l291 301l155 -151l-290 -301l317 -308l-186 -190l-318 307l-291 -301l-155 152l291 301z" />
<glyph unicode="&#xd8;" horiz-adv-x="1579" d="M47 203l143 127q-53 106 -74.5 180t-21.5 207q0 184 61.5 333.5t163 241.5t225.5 141.5t255 49.5q272 0 469 -197l127 113l121 -137l-136 -121q106 -197 107 -420q0 -139 -41 -269t-123 -242t-220 -179.5t-317 -67.5q-131 0 -237.5 41t-151.5 79t-102 99l-131 -114z M365 745q0 -123 45 -223l665 594q-123 123 -272 123q-188 0 -313 -147.5t-125 -346.5zM500 362q96 -152 284 -151q172 0 302.5 132t130.5 366q0 137 -48 245z" />
<glyph unicode="&#xd9;" horiz-adv-x="1492" d="M164 586v860h272v-889q0 -117 15 -160q53 -172 297 -172q233 0 292 164q18 53 19 182v875h270v-895q0 -178 -24 -256q-43 -131 -184.5 -231.5t-383.5 -100.5q-193 0 -345 81t-206 247q-22 74 -22 295zM463 1833h291l112 -248h-184z" />
<glyph unicode="&#xda;" horiz-adv-x="1492" d="M164 586v860h272v-889q0 -117 15 -160q53 -172 297 -172q233 0 292 164q18 53 19 182v875h270v-895q0 -178 -24 -256q-43 -131 -184.5 -231.5t-383.5 -100.5q-193 0 -345 81t-206 247q-22 74 -22 295zM633 1587l110 246h293l-221 -246h-182z" />
<glyph unicode="&#xdb;" horiz-adv-x="1492" d="M164 586v860h272v-889q0 -117 15 -160q53 -172 297 -172q233 0 292 164q18 53 19 182v875h270v-895q0 -178 -24 -256q-43 -131 -184.5 -231.5t-383.5 -100.5q-193 0 -345 81t-206 247q-22 74 -22 295zM422 1583l207 250h239l215 -250h-247l-88 115l-86 -115h-240z" />
<glyph unicode="&#xdc;" horiz-adv-x="1492" d="M164 586v860h272v-889q0 -117 15 -160q53 -172 297 -172q233 0 292 164q18 53 19 182v875h270v-895q0 -178 -24 -256q-43 -131 -184.5 -231.5t-383.5 -100.5q-193 0 -345 81t-206 247q-22 74 -22 295zM426 1581v252h229v-252h-229zM836 1581v252h233v-252h-233z" />
<glyph unicode="&#xdd;" horiz-adv-x="1280" d="M20 1446h308l313 -598l315 598h304l-488 -875v-571h-268v571zM526 1587l111 246h293l-221 -246h-183z" />
<glyph unicode="&#xde;" horiz-adv-x="1280" d="M168 0v1446h270v-205h217q102 0 166 -6t160 -48t162 -124q100 -121 100 -295q0 -172 -80 -289q-57 -84 -148 -129t-159 -54t-158 -9h-260v-287h-270zM438 508h228q299 0 299 264q0 238 -293 238h-234v-502z" />
<glyph unicode="&#xdf;" d="M133 0v1083q0 195 127 291t309 96q221 0 340 -112.5t119 -245.5q0 -94 -52 -168t-132 -98q90 -33 162.5 -126t72.5 -271q0 -205 -106.5 -335t-306.5 -130q-119 0 -195 32v238q74 -45 139 -45q98 0 154.5 78t56.5 180q0 143 -86 213t-229 70q-25 0 -35 -2v184q2 0 22.5 -2 t38.5 -2q98 0 157 47t59 125q0 14 -5.5 34.5t-20.5 49t-54 48t-95 19.5q-193 0 -192 -227v-1024h-248z" />
<glyph unicode="&#xe0;" horiz-adv-x="1110" d="M53 289q0 281 365 346q207 39 315 76q0 72 -35.5 112.5t-140.5 40.5q-207 0 -207 -153l-250 14q2 25 4 41t12.5 53t27 64.5t50 61.5t78.5 56.5t117 38t160 15.5q430 0 430 -291v-598q0 -59 7 -89t38 -77h-291l-6 80q-133 -104 -301 -105q-170 0 -271.5 90.5t-101.5 223.5 zM283 1446h305l106 -272h-182zM313 311q0 -55 41 -90t127 -35q96 0 174 48.5t78 138.5v137q-80 -39 -194 -57q-51 -8 -84 -15.5t-70 -23t-54.5 -41t-17.5 -62.5z" />
<glyph unicode="&#xe1;" horiz-adv-x="1110" d="M53 289q0 281 365 346q207 39 315 76q0 72 -35.5 112.5t-140.5 40.5q-207 0 -207 -153l-250 14q2 25 4 41t12.5 53t27 64.5t50 61.5t78.5 56.5t117 38t160 15.5q430 0 430 -291v-598q0 -59 7 -89t38 -77h-291l-6 80q-133 -104 -301 -105q-170 0 -271.5 90.5t-101.5 223.5 zM313 311q0 -55 41 -90t127 -35q96 0 174 48.5t78 138.5v137q-80 -39 -194 -57q-51 -8 -84 -15.5t-70 -23t-54.5 -41t-17.5 -62.5zM428 1174l102 272h306l-222 -272h-186z" />
<glyph unicode="&#xe2;" horiz-adv-x="1110" d="M53 289q0 281 365 346q207 39 315 76q0 72 -35.5 112.5t-140.5 40.5q-207 0 -207 -153l-250 14q2 25 4 41t12.5 53t27 64.5t50 61.5t78.5 56.5t117 38t160 15.5q430 0 430 -291v-598q0 -59 7 -89t38 -77h-291l-6 80q-133 -104 -301 -105q-170 0 -271.5 90.5t-101.5 223.5 zM207 1171l227 275h242l229 -275h-252l-96 138l-102 -138h-248zM313 311q0 -55 41 -90t127 -35q96 0 174 48.5t78 138.5v137q-80 -39 -194 -57q-51 -8 -84 -15.5t-70 -23t-54.5 -41t-17.5 -62.5z" />
<glyph unicode="&#xe3;" horiz-adv-x="1110" d="M53 289q0 281 365 346q207 39 315 76q0 72 -35.5 112.5t-140.5 40.5q-207 0 -207 -153l-250 14q2 25 4 41t12.5 53t27 64.5t50 61.5t78.5 56.5t117 38t160 15.5q430 0 430 -291v-598q0 -59 7 -89t38 -77h-291l-6 80q-133 -104 -301 -105q-170 0 -271.5 90.5t-101.5 223.5 zM207 1196q0 102 45 180t147 78q41 0 135.5 -38t120.5 -38q29 0 41.5 16.5t20.5 51.5h155q-4 -106 -46 -179t-138 -73q-51 0 -144 40t-124 40q-51 0 -60 -78h-153zM313 311q0 -55 41 -90t127 -35q96 0 174 48.5t78 138.5v137q-80 -39 -194 -57q-51 -8 -84 -15.5t-70 -23 t-54.5 -41t-17.5 -62.5z" />
<glyph unicode="&#xe4;" horiz-adv-x="1110" d="M53 289q0 281 365 346q207 39 315 76q0 72 -35.5 112.5t-140.5 40.5q-207 0 -207 -153l-250 14q2 25 4 41t12.5 53t27 64.5t50 61.5t78.5 56.5t117 38t160 15.5q430 0 430 -291v-598q0 -59 7 -89t38 -77h-291l-6 80q-133 -104 -301 -105q-170 0 -271.5 90.5t-101.5 223.5 zM219 1202v244h232v-244h-232zM313 311q0 -55 41 -90t127 -35q96 0 174 48.5t78 138.5v137q-80 -39 -194 -57q-51 -8 -84 -15.5t-70 -23t-54.5 -41t-17.5 -62.5zM629 1202v244h235v-244h-235z" />
<glyph unicode="&#xe5;" horiz-adv-x="1110" d="M53 289q0 281 365 346q207 39 315 76q0 72 -35.5 112.5t-140.5 40.5q-207 0 -207 -153l-250 14q2 25 4 41t12.5 53t27 64.5t50 61.5t78.5 56.5t117 38t160 15.5q430 0 430 -291v-598q0 -59 7 -89t38 -77h-291l-6 80q-133 -104 -301 -105q-170 0 -271.5 90.5t-101.5 223.5 zM313 311q0 -55 41 -90t127 -35q96 0 174 48.5t78 138.5v137q-80 -39 -194 -57q-51 -8 -84 -15.5t-70 -23t-54.5 -41t-17.5 -62.5zM334 1356q0 86 61.5 146.5t147.5 60.5q102 0 154.5 -69t52.5 -138q0 -86 -61.5 -147.5t-145.5 -61.5q-86 0 -147.5 60.5t-61.5 148.5z M455 1354q0 -35 25.5 -60.5t60.5 -25.5q37 0 61.5 25.5t24.5 60.5q0 37 -26 61.5t-60 24.5q-41 0 -63.5 -26.5t-22.5 -59.5z" />
<glyph unicode="&#xe6;" horiz-adv-x="1792" d="M59 281q0 119 84 202q94 94 373 152q152 29 229 63q0 88 -52 133.5t-140 45.5q-104 0 -154.5 -45.5t-50.5 -120.5h-237q4 35 9 62.5t30.5 84.5t67.5 96t125 70t194 31q236 0 352 -133q43 39 72.5 60.5t102.5 47t159 25.5q31 0 55.5 -1t79.5 -13.5t97 -33t95.5 -64.5 t89 -104.5t62.5 -156.5t31 -217h-748q4 -47 18.5 -90t43 -88t84 -72t129.5 -27q147 0 247 140l195 -121q-37 -45 -66.5 -74t-90 -73t-142.5 -67.5t-180 -23.5q-57 0 -98.5 6.5t-121 42t-161.5 103.5q-170 -152 -408 -152q-104 0 -181 29t-117 77t-58.5 99.5t-18.5 106.5z M319 285q0 -53 42 -94t133 -41q137 0 206 104q39 57 45 238q-37 -14 -75.5 -26.5t-59 -17t-73 -14.5t-72.5 -14q-146 -29 -146 -135zM987 641h455q-20 96 -78.5 155.5t-153.5 59.5q-98 0 -161 -68q-56 -59 -62 -147z" />
<glyph unicode="&#xe7;" horiz-adv-x="1058" d="M49 512q0 215 139.5 379t378.5 164q94 0 174 -31t132.5 -80t85 -93t49.5 -87l-220 -102q-57 174 -233 174q-119 0 -185.5 -91.5t-66.5 -226.5q0 -139 68.5 -229t189.5 -90q172 0 248 200l209 -110q-47 -137 -160 -220t-254 -98l-51 -65h14q109 0 151 -41t42 -90 q0 -156 -318 -156q-55 0 -84 2v64q27 -2 37 -2q129 0 129 53q0 49 -135 49q-16 0 -41 -4v31l154 161q-203 18 -328 170t-125 369z" />
<glyph unicode="&#xe8;" d="M70 518q0 260 149.5 398.5t364.5 138.5q139 0 242.5 -52.5t157.5 -141.5t78.5 -187.5t24.5 -210.5h-757q2 -20 8 -47t26.5 -65t50 -68.5t83 -52t120.5 -21.5q184 0 269 141l209 -121q-193 -260 -500 -260q-233 0 -379.5 148.5t-146.5 400.5zM281 1446h305l106 -272h-182z M338 643h479q-2 27 -11 56.5t-31.5 68.5t-71 64.5t-115.5 25.5q-70 0 -122 -25.5t-78 -68.5t-35 -68.5t-15 -52.5z" />
<glyph unicode="&#xe9;" d="M70 518q0 260 149.5 398.5t364.5 138.5q139 0 242.5 -52.5t157.5 -141.5t78.5 -187.5t24.5 -210.5h-757q2 -20 8 -47t26.5 -65t50 -68.5t83 -52t120.5 -21.5q184 0 269 141l209 -121q-193 -260 -500 -260q-233 0 -379.5 148.5t-146.5 400.5zM338 643h479q-2 27 -11 56.5 t-31.5 68.5t-71 64.5t-115.5 25.5q-70 0 -122 -25.5t-78 -68.5t-35 -68.5t-15 -52.5zM469 1174l102 272h306l-222 -272h-186z" />
<glyph unicode="&#xea;" d="M70 518q0 260 149.5 398.5t364.5 138.5q139 0 242.5 -52.5t157.5 -141.5t78.5 -187.5t24.5 -210.5h-757q2 -20 8 -47t26.5 -65t50 -68.5t83 -52t120.5 -21.5q184 0 269 141l209 -121q-193 -260 -500 -260q-233 0 -379.5 148.5t-146.5 400.5zM227 1171l228 275h241 l230 -275h-252l-96 138l-103 -138h-248zM338 643h479q-2 27 -11 56.5t-31.5 68.5t-71 64.5t-115.5 25.5q-70 0 -122 -25.5t-78 -68.5t-35 -68.5t-15 -52.5z" />
<glyph unicode="&#xeb;" d="M70 518q0 260 149.5 398.5t364.5 138.5q139 0 242.5 -52.5t157.5 -141.5t78.5 -187.5t24.5 -210.5h-757q2 -20 8 -47t26.5 -65t50 -68.5t83 -52t120.5 -21.5q184 0 269 141l209 -121q-193 -260 -500 -260q-233 0 -379.5 148.5t-146.5 400.5zM256 1202v244h231v-244h-231z M338 643h479q-2 27 -11 56.5t-31.5 68.5t-71 64.5t-115.5 25.5q-70 0 -122 -25.5t-78 -68.5t-35 -68.5t-15 -52.5zM666 1202v244h235v-244h-235z" />
<glyph unicode="&#xec;" horiz-adv-x="512" d="M-41 1446h305l107 -272h-183zM133 0v1024h244v-1024h-244z" />
<glyph unicode="&#xed;" horiz-adv-x="512" d="M133 0v1024h244v-1024h-244zM150 1174l102 272h305l-221 -272h-186z" />
<glyph unicode="&#xee;" horiz-adv-x="512" d="M-92 1171l227 275h242l229 -275h-252l-96 138l-102 -138h-248zM133 0v1024h244v-1024h-244z" />
<glyph unicode="&#xef;" horiz-adv-x="512" d="M-63 1202v244h231v-244h-231zM133 0v1024h244v-1024h-244zM346 1202v244h236v-244h-236z" />
<glyph unicode="&#xf0;" horiz-adv-x="1193" d="M72 522q0 244 148.5 389.5t342.5 145.5q121 0 209 -78q-25 102 -102 205l-334 -90l-39 108l293 80q-20 18 -53 51l-45 45l229 99q20 -18 38.5 -39t41 -46.5t37.5 -41.5l188 51l41 -109l-156 -43q68 -109 103 -182q113 -231 112 -489q0 -274 -134 -441.5t-392 -167.5 q-121 0 -216 39t-152.5 97.5t-94.5 135t-51 146t-14 135.5zM328 518q0 -131 72.5 -227t207.5 -96q129 0 194.5 94t65.5 219q0 152 -80.5 239t-187.5 87q-135 0 -203.5 -92.5t-68.5 -223.5z" />
<glyph unicode="&#xf1;" d="M129 0v1024h248v-121q41 63 114.5 100t118.5 44.5t82 7.5q160 0 246 -93.5t86 -248.5v-713h-242v575q0 240 -180 240q-74 0 -129 -47q-55 -45 -75.5 -116.5t-20.5 -207.5v-444h-248zM254 1196q0 102 45 180t147 78q41 0 135.5 -38t120.5 -38q29 0 41.5 16.5t20.5 51.5 h156q-4 -106 -46.5 -179t-138.5 -73q-51 0 -144 40t-124 40q-51 0 -59 -78h-154z" />
<glyph unicode="&#xf2;" horiz-adv-x="1193" d="M72 516q0 131 53 250t176 204t295 85q88 0 177 -31t169 -91.5t131 -169t51 -247.5q0 -223 -137 -385t-383 -162q-109 0 -199 33t-150 87t-102 126t-61.5 147.5t-19.5 153.5zM301 1446h305l107 -272h-183zM328 522q0 -141 74.5 -234t201.5 -93t195.5 91t68.5 218 q0 135 -71.5 232.5t-204.5 97.5q-113 0 -188.5 -81t-75.5 -231z" />
<glyph unicode="&#xf3;" horiz-adv-x="1193" d="M72 516q0 131 53 250t176 204t295 85q88 0 177 -31t169 -91.5t131 -169t51 -247.5q0 -223 -137 -385t-383 -162q-109 0 -199 33t-150 87t-102 126t-61.5 147.5t-19.5 153.5zM328 522q0 -141 74.5 -234t201.5 -93t195.5 91t68.5 218q0 135 -71.5 232.5t-204.5 97.5 q-113 0 -188.5 -81t-75.5 -231zM489 1174l103 272h305l-221 -272h-187z" />
<glyph unicode="&#xf4;" horiz-adv-x="1193" d="M72 516q0 131 53 250t176 204t295 85q88 0 177 -31t169 -91.5t131 -169t51 -247.5q0 -223 -137 -385t-383 -162q-109 0 -199 33t-150 87t-102 126t-61.5 147.5t-19.5 153.5zM250 1171l227 275h242l229 -275h-252l-96 138l-102 -138h-248zM328 522q0 -141 74.5 -234 t201.5 -93t195.5 91t68.5 218q0 135 -71.5 232.5t-204.5 97.5q-113 0 -188.5 -81t-75.5 -231z" />
<glyph unicode="&#xf5;" horiz-adv-x="1193" d="M72 516q0 131 53 250t176 204t295 85q88 0 177 -31t169 -91.5t131 -169t51 -247.5q0 -223 -137 -385t-383 -162q-109 0 -199 33t-150 87t-102 126t-61.5 147.5t-19.5 153.5zM270 1196q0 102 45 180t148 78q41 0 135 -38t121 -38q29 0 41 16.5t20 51.5h156 q-4 -106 -46 -179t-138 -73q-51 0 -144.5 40t-124.5 40q-51 0 -59 -78h-154zM328 522q0 -141 74.5 -234t201.5 -93t195.5 91t68.5 218q0 135 -71.5 232.5t-204.5 97.5q-113 0 -188.5 -81t-75.5 -231z" />
<glyph unicode="&#xf6;" horiz-adv-x="1193" d="M72 516q0 131 53 250t176 204t295 85q88 0 177 -31t169 -91.5t131 -169t51 -247.5q0 -223 -137 -385t-383 -162q-109 0 -199 33t-150 87t-102 126t-61.5 147.5t-19.5 153.5zM281 1202v244h231v-244h-231zM328 522q0 -141 74.5 -234t201.5 -93t195.5 91t68.5 218 q0 135 -71.5 232.5t-204.5 97.5q-113 0 -188.5 -81t-75.5 -231zM690 1202v244h236v-244h-236z" />
<glyph unicode="&#xf7;" horiz-adv-x="1482" d="M162 526v230h1159v-230h-1159zM616 127v274h248v-274h-248zM616 879v276h250v-276h-250z" />
<glyph unicode="&#xf8;" horiz-adv-x="1193" d="M18 162l115 92q-72 123 -72 264q0 104 35 201q18 51 51 101t90.5 106.5t150.5 92.5t208 36q207 0 362 -140l105 84l94 -114l-115 -92q78 -137 78 -285q0 -215 -131 -369q-143 -170 -411 -170q-117 0 -198 36t-163 122l-108 -86zM303 524q0 -55 16 -123l459 369 q-70 84 -182 84q-129 0 -213 -92q-80 -91 -80 -238zM393 272q82 -100 205 -100q117 0 199 88q82 86 82 234q0 92 -25 147z" />
<glyph unicode="&#xf9;" horiz-adv-x="1193" d="M127 381v643h248v-590q0 -227 200 -227q78 0 128.5 37t70.5 78q39 76 39 245v457h246v-1024h-246v104q-139 -129 -332 -129q-205 0 -295 136q-59 88 -59 270zM301 1446h305l107 -272h-183z" />
<glyph unicode="&#xfa;" horiz-adv-x="1193" d="M127 381v643h248v-590q0 -227 200 -227q78 0 128.5 37t70.5 78q39 76 39 245v457h246v-1024h-246v104q-139 -129 -332 -129q-205 0 -295 136q-59 88 -59 270zM492 1174l102 272h305l-221 -272h-186z" />
<glyph unicode="&#xfb;" horiz-adv-x="1193" d="M127 381v643h248v-590q0 -227 200 -227q78 0 128.5 37t70.5 78q39 76 39 245v457h246v-1024h-246v104q-139 -129 -332 -129q-205 0 -295 136q-59 88 -59 270zM248 1171l227 275h242l229 -275h-252l-96 138l-102 -138h-248z" />
<glyph unicode="&#xfc;" horiz-adv-x="1193" d="M127 381v643h248v-590q0 -227 200 -227q78 0 128.5 37t70.5 78q39 76 39 245v457h246v-1024h-246v104q-139 -129 -332 -129q-205 0 -295 136q-59 88 -59 270zM274 1202v244h232v-244h-232zM684 1202v244h236v-244h-236z" />
<glyph unicode="&#xfd;" horiz-adv-x="980" d="M25 1024h264l229 -764l193 764h252l-273 -934q-27 -94 -44 -146.5t-54 -127t-76 -107.5q-76 -61 -209 -61q-78 0 -145 14v213q25 -4 67 -4q133 0 166 109zM385 1174l102 272h306l-222 -272h-186z" />
<glyph unicode="&#xfe;" horiz-adv-x="1193" d="M131 -334v1780h246v-514q123 123 276 123q117 0 209 -50.5t147.5 -131t84 -176t28.5 -193.5q0 -211 -122.5 -373t-342.5 -162q-154 0 -280 115v-418h-246zM373 504q0 -143 73.5 -222t176.5 -79q100 0 173.5 76.5t73.5 230.5q0 152 -75.5 230.5t-173.5 78.5 q-100 0 -174 -78.5t-74 -236.5z" />
<glyph unicode="&#xff;" horiz-adv-x="980" d="M25 1024h264l229 -764l193 764h252l-273 -934q-27 -94 -44 -146.5t-54 -127t-76 -107.5q-76 -61 -209 -61q-78 0 -145 14v213q25 -4 67 -4q133 0 166 109zM170 1202v244h231v-244h-231zM580 1202v244h235v-244h-235z" />
<glyph unicode="&#x152;" horiz-adv-x="2260" d="M96 694q0 182 59.5 334t158 250t224.5 151.5t263 53.5q168 0 327 -99v62h1033v-246h-764v-346h665v-233h-665v-377h809v-244h-1078l-2 51q-160 -88 -350 -88q-127 0 -246.5 47t-218 135t-157 230.5t-58.5 318.5zM385 698q0 -129 42 -237.5t142.5 -183t245.5 -74.5 q127 0 211 53t102 129v641q-16 74 -79.5 122t-124 63.5t-115.5 15.5q-33 0 -74 -7.5t-106.5 -39t-116.5 -85t-89 -157t-38 -240.5z" />
<glyph unicode="&#x153;" horiz-adv-x="1878" d="M70 502q0 244 142 398.5t368 154.5q211 0 362 -152q168 152 361 152q227 0 368 -162t141 -440h-735q10 -115 83 -190t186 -75q150 0 245 140l199 -121q-186 -238 -461 -238q-143 0 -220 44t-159 141q-133 -184 -379 -185q-236 0 -368.5 147.5t-132.5 385.5zM317 510 q0 -47 10.5 -94t37 -101.5t82 -88t133.5 -33.5q135 0 198.5 95t63.5 216q0 127 -70 224t-197 97q-125 0 -191.5 -93t-66.5 -222zM1077 627h451q-49 215 -228 215q-27 0 -55 -7.5t-64 -28t-64 -66t-40 -113.5z" />
<glyph unicode="&#x178;" horiz-adv-x="1280" d="M20 1446h308l313 -598l315 598h304l-488 -875v-571h-268v571zM322 1581v252h229v-252h-229zM731 1581v252h234v-252h-234z" />
<glyph unicode="&#x2c6;" horiz-adv-x="555" d="M-72 1171l228 275h241l230 -275h-252l-96 138l-103 -138h-248z" />
<glyph unicode="&#x2dc;" horiz-adv-x="555" d="M-55 1196q0 102 45 180t147 78q41 0 135.5 -38t120.5 -38q29 0 41 16.5t21 51.5h155q-4 -106 -46 -179t-138 -73q-51 0 -144.5 40t-123.5 40q-51 0 -60 -78h-153z" />
<glyph unicode="&#x2000;" horiz-adv-x="985" />
<glyph unicode="&#x2001;" horiz-adv-x="1972" />
<glyph unicode="&#x2002;" horiz-adv-x="985" />
<glyph unicode="&#x2003;" horiz-adv-x="1972" />
<glyph unicode="&#x2004;" horiz-adv-x="657" />
<glyph unicode="&#x2005;" horiz-adv-x="491" />
<glyph unicode="&#x2006;" horiz-adv-x="327" />
<glyph unicode="&#x2007;" horiz-adv-x="327" />
<glyph unicode="&#x2008;" horiz-adv-x="245" />
<glyph unicode="&#x2009;" horiz-adv-x="393" />
<glyph unicode="&#x200a;" horiz-adv-x="108" />
<glyph unicode="&#x2010;" horiz-adv-x="761" d="M84 506v231h592v-231h-592z" />
<glyph unicode="&#x2011;" horiz-adv-x="761" d="M84 506v231h592v-231h-592z" />
<glyph unicode="&#x2012;" horiz-adv-x="761" d="M84 506v231h592v-231h-592z" />
<glyph unicode="&#x2013;" horiz-adv-x="1249" d="M84 506v231h1081v-231h-1081z" />
<glyph unicode="&#x2014;" horiz-adv-x="1828" d="M84 506v231h1661v-231h-1661z" />
<glyph unicode="&#x2018;" horiz-adv-x="425" d="M74 887v336q0 82 65.5 146.5t190.5 82.5v-121q-111 -12 -111 -164h127v-280h-272z" />
<glyph unicode="&#x2019;" horiz-adv-x="425" d="M80 1165v281h268v-305q0 -113 -69.5 -179.5t-184.5 -82.5v114q59 27 84 53.5t25 86.5v32h-123z" />
<glyph unicode="&#x201a;" horiz-adv-x="425" d="M76 0v281h272v-318q0 -109 -66.5 -166t-189.5 -82v119q111 12 111 166h-127z" />
<glyph unicode="&#x201c;" horiz-adv-x="768" d="M76 893v297q0 123 60.5 186.5t187.5 87.5v-114q-74 -31 -89.5 -59.5t-15.5 -114.5h123v-283h-266zM426 893v311q0 68 18.5 112t67.5 83q68 51 166 57v-108q-76 -29 -94.5 -58.5t-18.5 -113.5h127v-283h-266z" />
<glyph unicode="&#x201d;" horiz-adv-x="768" d="M76 1161v285h266v-293q0 -127 -60.5 -191.5t-189.5 -89.5v115q51 16 74.5 40t28 50.5t4.5 83.5h-123zM426 1161v285h266v-293q0 -127 -60.5 -191.5t-189.5 -89.5v115q51 16 75 40t28 50.5t4 83.5h-123z" />
<glyph unicode="&#x201e;" horiz-adv-x="768" d="M76 0v285h266v-293q0 -127 -60.5 -191.5t-189.5 -89.5v115q51 16 74.5 39.5t28 50.5t4.5 84h-123zM426 0v285h266v-293q0 -127 -60.5 -191.5t-189.5 -89.5v115q51 16 75 39.5t28 50.5t4 84h-123z" />
<glyph unicode="&#x2022;" horiz-adv-x="681" d="M96 477v488h490v-488h-490z" />
<glyph unicode="&#x2026;" horiz-adv-x="2048" d="M225 0v227h230v-227h-230zM909 0v227h230v-227h-230zM1591 0v227h232v-227h-232z" />
<glyph unicode="&#x202f;" horiz-adv-x="393" />
<glyph unicode="&#x2039;" horiz-adv-x="512" d="M115 500v288l291 234v-234l-177 -145l177 -143v-230z" />
<glyph unicode="&#x203a;" horiz-adv-x="512" d="M102 264v232l177 147l-177 141v232l291 -232v-288z" />
<glyph unicode="&#x205f;" horiz-adv-x="491" />
<glyph unicode="&#x20ac;" horiz-adv-x="1425" d="M63 516l56 148h88l4 81h-148l56 148h108q59 252 233.5 391t432.5 139q143 0 251.5 -33.5t213.5 -117.5l-94 -273q-74 96 -157 140.5t-200 44.5q-145 0 -245.5 -76t-139.5 -215h707l-55 -148h-672q-2 -12 -2 -38q0 -29 2 -43h647l-55 -148h-574q86 -309 395 -309 q113 0 218.5 48t181.5 132v-305q-182 -125 -430 -125q-270 0 -438 145.5t-224 413.5h-160z" />
<glyph unicode="&#x2122;" horiz-adv-x="1406" d="M16 1327v119h521v-119h-181v-561h-147v561h-193zM621 766v680h219l116 -477l113 477h217v-680h-135l2 539l-139 -539h-119l-143 547q8 -508 8 -547h-139z" />
<glyph unicode="&#xe000;" horiz-adv-x="1025" d="M0 1025h1025v-1025h-1025v1025z" />
<glyph unicode="&#xfb01;" horiz-adv-x="1153" d="M8 850v174h154v141q0 145 67.5 214t262.5 69q61 0 139 -10v-209q-18 6 -78 6q-51 0 -82 -12.5t-44 -36t-16 -43t-3 -49.5v-70h223v-174h-223v-850h-246v850h-154zM774 0v1024h244v-1024h-244zM774 1184v248h244v-248h-244z" />
<glyph unicode="&#xfb02;" horiz-adv-x="1153" d="M8 850v174h154v141q0 145 67.5 214t262.5 69q61 0 139 -10v-209q-18 6 -78 6q-51 0 -82 -12.5t-44 -36t-16 -43t-3 -49.5v-70h223v-174h-223v-850h-246v850h-154zM774 0v1446h250v-1446h-250z" />
<glyph unicode="&#xfb03;" horiz-adv-x="1794" d="M1415 0v1024h244v-1024h-244zM1415 1184v248h244v-248h-244zM649 850v174h154v141q0 145 67.5 214t262.5 69q61 0 139 -10v-209q-18 6 -78 6q-51 0 -82 -12.5t-44 -36t-16 -43t-3 -49.5v-70h223v-174h-223v-850h-246v850h-154zM8 850v174h154v141q0 145 67.5 214 t262.5 69q61 0 139 -10v-209q-18 6 -78 6q-51 0 -82 -12.5t-44 -36t-16 -43t-3 -49.5v-70h223v-174h-223v-850h-246v850h-154z" />
<glyph unicode="&#xfb04;" horiz-adv-x="1794" d="M1415 0v1446h250v-1446h-250zM649 850v174h154v141q0 145 67.5 214t262.5 69q61 0 139 -10v-209q-18 6 -78 6q-51 0 -82 -12.5t-44 -36t-16 -43t-3 -49.5v-70h223v-174h-223v-850h-246v850h-154zM8 850v174h154v141q0 145 67.5 214t262.5 69q61 0 139 -10v-209 q-18 6 -78 6q-51 0 -82 -12.5t-44 -36t-16 -43t-3 -49.5v-70h223v-174h-223v-850h-246v850h-154z" />
</font>
</defs>
</svg>
